<svg xmlns="http://www.w3.org/2000/svg" viewBox="0 0 512 512" fill="none">
  <rect width="512" height="512" fill="#f3f6fc"/>
  <!-- Êß*˛÷o“Rˇ	 -->
  <path fill="url(#teal)" d="M108 148h88v44H152v76h-44V148zm0 120h44v96h-44v-96z"/>
  <path fill="url(#tealDark)" opacity="0.85" d="M152 148h44v120h-44V148zm44 44h44v152h-44V192z"/>
  <!-- Ûß
Gpø¡L›	 -->
  <path fill="url(#blue)" d="M268 340V220h52v120h-52zm52-72h48v72h-48v-72zm48-56h52v128h-52V212z"/>
  <path fill="url(#blueDark)" opacity="0.9" d="M320 148h52v72h-52v-72zm52 56h52v136h-52V204z"/>
  <!-- -√AI Iπ -->
  <circle cx="256" cy="256" r="18" fill="#cf9b3e"/>
  <circle cx="256" cy="256" r="10" fill="#f8f1de"/>
  <defs>
    <linearGradient id="teal" x1="108" y1="148" x2="196" y2="340" gradientUnits="userSpaceOnUse">
      <stop stop-color="#2dd4bf"/>
      <stop offset="1" stop-color="#0d9488"/>
    </linearGradient>
    <linearGradient id="tealDark" x1="152" y1="148" x2="196" y2="340" gradientUnits="userSpaceOnUse">
      <stop stop-color="#14b8a6"/>
      <stop offset="1" stop-color="#0f766e"/>
    </linearGradient>
    <linearGradient id="blue" x1="268" y1="148" x2="420" y2="340" gradientUnits="userSpaceOnUse">
      <stop stop-color="#3b82f6"/>
      <stop offset="1" stop-color="#2356e0"/>
    </linearGradient>
    <linearGradient id="blueDark" x1="320" y1="148" x2="420" y2="340" gradientUnits="userSpaceOnUse">
      <stop stop-color="#2356e0"/>
      <stop offset="1" stop-color="#173fb0"/>
    </linearGradient>
  </defs>
</svg>
